<?xml version="1.0" standalone="no"?>
<!DOCTYPE svg PUBLIC "-//W3C//DTD SVG 20010904//EN"
 "http://www.w3.org/TR/2001/REC-SVG-20010904/DTD/svg10.dtd">
<svg version="1.0" xmlns="http://www.w3.org/2000/svg"
 width="652.000000pt" height="595.000000pt" viewBox="0 0 652.000000 595.000000"
 preserveAspectRatio="xMidYMid meet">

<g transform="translate(0.000000,595.000000) scale(0.100000,-0.100000)"
fill="#000000" stroke="none">
<path d="M3580 4783 c0 -4 -12 -21 -26 -36 -29 -32 -27 -45 5 -26 11 7 24 9
28 5 4 -5 2 -11 -4 -13 -7 -3 -13 -13 -13 -22 0 -14 -11 -20 -51 -24 -28 -4
-58 -12 -66 -19 -8 -7 -27 -14 -41 -16 -14 -2 -33 -7 -42 -12 -11 -6 -22 -5
-30 3 -10 10 -12 8 -7 -8 2 -11 8 -28 12 -38 4 -11 3 -17 -3 -15 -29 8 -9 -21
67 -97 69 -68 88 -82 102 -74 23 12 39 12 39 -1 0 -5 -9 -10 -20 -10 -33 0
-23 -28 15 -40 20 -7 42 -24 52 -41 10 -16 23 -29 31 -29 7 0 20 -7 28 -15 8
-8 22 -11 31 -8 17 7 8 16 -77 86 -19 15 -30 27 -24 27 12 0 83 -47 105 -69 8
-9 33 -29 54 -46 21 -16 47 -37 58 -46 11 -9 16 -18 11 -22 -6 -3 -30 10 -53
29 -24 19 -47 34 -51 34 -11 0 -21 -30 -15 -40 8 -13 -43 -36 -92 -43 -44 -5
-59 7 -22 18 17 6 18 9 7 22 -7 9 -12 35 -10 60 1 24 -2 43 -8 43 -5 0 -10 -9
-10 -21 0 -13 -11 -25 -34 -34 -19 -8 -37 -19 -41 -25 -10 -16 25 -25 46 -12
33 21 39 11 14 -21 -12 -17 -18 -18 -49 -7 -21 7 -36 18 -36 27 0 17 -28 42
-48 43 -9 0 -10 -5 -3 -18 8 -16 4 -22 -25 -35 -19 -10 -41 -17 -49 -17 -8 0
-15 -5 -15 -11 0 -6 -7 -9 -15 -5 -10 3 -15 -1 -15 -12 0 -19 -50 -62 -72 -62
-7 0 -30 16 -50 35 -28 25 -38 42 -38 64 0 16 -4 32 -9 35 -13 8 -163 -63
-156 -74 4 -6 13 -7 23 -1 29 15 95 24 87 12 -3 -6 -12 -11 -18 -11 -7 0 -20
-14 -29 -30 -19 -34 -34 -38 -41 -12 -4 13 -5 11 -6 -5 -1 -14 5 -23 14 -23 8
0 15 -4 15 -9 0 -5 -7 -14 -15 -21 -12 -10 -18 -10 -29 0 -21 17 -60 9 -64
-14 -3 -16 1 -18 27 -14 17 2 31 1 31 -4 0 -4 -4 -8 -10 -8 -5 0 -9 -9 -7 -21
2 -18 -4 -21 -36 -23 -21 -2 -40 1 -43 6 -3 4 0 8 5 8 6 0 11 7 11 16 0 13 3
14 14 5 8 -7 17 -8 20 -3 6 10 -25 22 -57 22 -25 0 -48 -25 -41 -44 9 -23 24
-19 25 7 1 14 4 9 8 -13 9 -49 -6 -72 -44 -65 -24 5 -27 4 -15 -5 11 -9 4 -10
-30 -4 -25 3 -46 10 -48 15 -2 5 -10 9 -18 9 -8 0 -14 5 -14 10 0 6 9 10 20
10 12 0 20 7 20 17 0 9 -3 13 -7 10 -3 -4 -13 -1 -21 6 -13 9 -14 9 -8 0 4 -8
1 -13 -9 -13 -9 0 -13 5 -10 10 7 11 -15 13 -39 4 -24 -9 -19 -34 7 -34 26 0
54 -37 39 -52 -6 -6 -23 -11 -38 -11 -16 -1 -32 -6 -36 -12 -5 -6 -11 -5 -17
4 -7 11 -13 9 -31 -9 l-21 -21 -6 20 c-7 26 -39 28 -45 3 -8 -27 -80 -48 -123
-35 -34 11 -57 2 -34 -13 7 -4 -2 -13 -21 -22 -26 -13 -33 -13 -40 -2 -7 11
-15 7 -38 -18 -27 -29 -32 -30 -56 -19 -29 13 -34 32 -11 41 8 3 15 15 15 26
0 17 4 20 21 15 20 -7 20 -6 2 14 -20 24 -33 27 -33 7 0 -7 -11 -25 -24 -39
-13 -14 -22 -28 -19 -31 3 -3 2 -13 -1 -23 -7 -17 -8 -17 -22 1 -13 19 -14 19
-34 1 -20 -18 -21 -18 -65 13 -28 19 -47 27 -51 21 -4 -6 -19 -8 -36 -5 -24 5
-29 3 -24 -10 3 -8 2 -12 -4 -9 -6 3 -10 0 -10 -7 -1 -23 -39 -61 -55 -54 -11
4 -15 0 -13 -12 2 -12 -5 -18 -27 -20 -16 -2 -34 -7 -38 -12 -5 -4 -20 -2 -34
5 -22 11 -28 11 -40 -1 -8 -8 -20 -14 -26 -14 -7 0 -3 -7 8 -16 17 -12 18 -16
5 -24 -8 -5 -21 -5 -32 1 -10 5 -18 7 -18 4 0 -3 -15 1 -32 8 -18 8 -39 12
-45 10 -7 -3 -13 -1 -13 4 0 4 -10 9 -22 10 -20 1 -80 14 -113 23 -5 2 -28 -5
-50 -14 -22 -10 -78 -33 -125 -53 -202 -83 -253 -109 -302 -154 -26 -25 -37
-41 -32 -52 3 -10 10 -17 15 -17 5 0 9 -11 9 -25 0 -19 5 -25 23 -24 12 0 16
3 10 6 -11 4 -19 33 -10 33 1 0 29 -14 62 -31 53 -27 67 -31 118 -26 31 3 57
1 57 -4 0 -5 -6 -9 -14 -9 -8 0 -17 -8 -19 -17 -4 -17 -5 -17 -6 0 -1 19 -12
22 -28 6 -7 -7 -22 -7 -49 0 -22 6 -55 11 -74 13 -19 1 -55 10 -79 20 -47 20
-66 18 -32 -4 25 -15 27 -28 6 -28 -8 0 -15 5 -15 10 0 6 -9 10 -20 10 -11 0
-20 -6 -20 -14 0 -8 -7 -16 -14 -19 -10 -4 -13 -1 -9 9 3 10 0 12 -10 8 -18
-7 -15 -39 4 -40 31 -2 32 -5 10 -20 -26 -19 -71 -21 -98 -5 -15 9 -12 11 17
11 l35 2 -28 10 c-19 7 -36 7 -51 0 -16 -7 -25 -6 -35 5 -7 8 -16 11 -19 8
-20 -19 143 -101 248 -125 19 -5 44 -11 55 -14 40 -11 214 -46 277 -56 75 -12
85 -14 163 -24 52 -7 60 -11 61 -30 0 -11 4 -29 8 -38 7 -16 2 -18 -32 -18
-59 0 -74 8 -61 31 13 25 25 24 32 -2 7 -28 32 -19 32 12 0 26 -19 32 -152 42
-67 5 -73 4 -73 -13 0 -24 22 -31 37 -11 11 14 13 14 26 -3 10 -14 21 -17 39
-13 18 5 28 2 32 -8 8 -21 -54 -20 -200 5 -228 39 -368 78 -485 134 -53 25
-62 21 -26 -12 64 -60 297 -133 547 -170 458 -69 566 -77 1078 -77 254 0 462
-3 462 -7 0 -15 -23 -20 -31 -7 -7 11 -11 11 -17 1 -5 -7 -16 -10 -25 -6 -9 3
-21 2 -28 -2 -18 -11 -79 -12 -85 -2 -3 5 -16 3 -27 -4 -13 -9 -34 -12 -52 -8
-16 3 -38 1 -49 -5 -14 -7 -20 -7 -23 3 -3 6 -10 9 -16 5 -17 -11 -77 -11 -83
-1 -3 5 -13 3 -22 -4 -12 -11 -16 -11 -20 0 -3 10 -7 10 -18 1 -11 -9 -17 -9
-28 0 -10 9 -16 9 -21 1 -5 -8 -11 -8 -21 1 -11 9 -17 9 -28 0 -10 -8 -16 -9
-21 -1 -4 7 -12 7 -25 0 -11 -6 -21 -6 -24 -1 -7 10 -66 8 -84 -3 -6 -3 -13
-2 -16 3 -7 10 -57 8 -75 -4 -7 -4 -16 -3 -20 2 -3 6 -34 9 -68 8 -35 -1 -63
1 -63 5 0 4 -30 8 -67 9 -106 1 -106 1 -118 10 -5 4 -28 9 -50 10 -45 3 -80 8
-80 10 0 1 -22 4 -50 6 -79 7 -100 11 -114 19 -8 5 -16 3 -21 -4 -6 -9 -9 -9
-15 -1 -3 7 -15 9 -25 6 -10 -3 -21 -1 -24 4 -4 6 -14 7 -22 4 -9 -3 -20 0
-24 7 -7 11 -12 11 -22 2 -10 -8 -18 -8 -25 -1 -6 6 -27 11 -47 12 -20 1 -36
4 -36 9 0 4 -13 6 -30 5 -21 -1 -30 -7 -30 -19 0 -12 -8 -18 -25 -18 -20 0
-25 5 -25 25 0 15 -6 25 -14 25 -10 0 -12 -7 -8 -22 5 -22 4 -22 -14 -7 -23
19 -64 31 -64 18 0 -5 4 -9 9 -9 5 0 11 -9 14 -21 5 -17 10 -19 41 -13 30 5
36 3 36 -11 0 -11 -5 -15 -14 -12 -8 3 -22 -3 -31 -13 -9 -10 -27 -20 -39 -22
-18 -3 -17 -5 8 -10 20 -4 34 0 46 12 16 16 18 16 43 -2 15 -11 27 -15 27 -9
0 6 9 11 20 11 15 0 22 -9 27 -30 6 -31 23 -42 23 -15 0 8 5 15 11 15 6 0 9
-9 6 -19 -4 -16 5 -22 59 -35 35 -9 76 -16 92 -16 46 0 92 -12 86 -21 -3 -5
11 -9 30 -9 19 0 38 -4 41 -10 10 -16 35 -12 35 6 0 11 5 14 18 9 20 -8 20 -8
49 -6 12 0 24 9 26 19 2 9 3 7 2 -5 -1 -13 2 -23 7 -23 5 0 6 -5 2 -11 -5 -8
13 -9 62 -4 38 3 71 11 72 16 6 14 19 10 19 -6 0 -16 -31 -30 -46 -20 -5 3
-13 0 -17 -6 -5 -9 17 -10 87 -6 52 3 78 2 59 -1 -60 -12 102 -32 285 -37 88
-2 142 -1 120 2 -68 8 -61 22 8 17 157 -10 581 -8 797 3 310 16 963 41 1270
48 135 3 308 10 385 15 77 5 228 12 335 15 240 8 425 34 523 74 55 22 71 33
69 46 -3 13 1 16 14 11 9 -3 23 -1 31 5 11 10 10 15 -7 31 -21 20 -27 48 -10
48 6 0 10 -8 11 -17 1 -12 4 -9 8 7 4 15 3 28 -3 32 -8 5 -7 11 2 20 15 15 16
32 1 23 -6 -4 -9 3 -7 21 2 21 -3 31 -22 42 -24 13 -24 13 13 7 36 -6 37 -5
25 14 -7 12 -18 21 -25 21 -7 0 -13 6 -13 14 0 25 12 46 25 46 8 0 17 5 20 10
6 10 -30 9 -40 -2 -3 -3 -23 -2 -45 2 -22 4 -40 5 -40 1 0 -3 -26 -7 -58 -8
-31 0 -82 -4 -112 -8 -30 -3 -95 -8 -145 -10 -97 -5 -208 -10 -405 -20 -69 -4
-128 -9 -133 -12 -4 -2 -14 1 -22 7 -11 9 -15 9 -15 1 0 -7 -20 -10 -54 -9
-30 1 -58 -1 -61 -4 -9 -8 -35 1 -35 13 0 5 10 9 23 9 90 -1 564 22 707 35 96
8 209 17 250 21 88 7 192 31 202 47 13 20 9 29 -9 23 -9 -4 -61 -11 -117 -16
-56 -5 -128 -12 -160 -16 -52 -5 -58 -3 -47 9 6 8 21 13 31 10 11 -3 27 0 35
7 12 10 19 10 27 2 17 -17 41 -15 34 3 -3 9 0 15 8 15 8 0 16 -5 18 -12 3 -7
9 -8 19 -3 7 5 21 10 29 10 8 1 25 2 38 3 15 1 22 8 22 22 0 18 -5 19 -72 15
-61 -4 -67 -3 -38 6 144 41 145 42 143 74 -17 227 -49 444 -74 510 -18 45 -18
51 -4 62 13 9 14 16 5 32 -6 12 -13 21 -16 21 -3 0 -37 -18 -75 -40 -38 -23
-97 -54 -131 -70 -35 -16 -79 -38 -98 -49 -58 -33 -149 -71 -208 -86 -60 -16
-125 -8 -145 18 -7 8 -19 18 -28 23 -23 12 -99 106 -99 122 0 15 -16 10 200
66 279 71 315 100 367 297 36 138 43 246 19 304 -17 40 -15 40 -52 20 -16 -8
-40 -13 -54 -10 -37 8 -64 -26 -95 -120 -14 -44 -33 -91 -42 -105 -33 -51
-112 -106 -193 -135 -64 -23 -281 -55 -371 -55 -177 0 -465 42 -599 88 l-55
19 -3 54 c-4 93 -28 197 -64 279 -39 88 -41 91 -50 78 -5 -9 -7 -5 -6 11 2 13
-3 26 -9 28 -7 3 -13 1 -13 -4z m-75 -163 c3 -5 1 -10 -4 -10 -6 0 -11 5 -11
10 0 6 2 10 4 10 3 0 8 -4 11 -10z m-390 -440 c-3 -5 -11 -10 -16 -10 -6 0 -7
5 -4 10 3 6 11 10 16 10 6 0 7 -4 4 -10z m24 -62 c1 -5 -7 0 -17 10 -12 11
-14 19 -8 24 10 6 23 -13 25 -34z m591 33 c0 -9 -52 -22 -60 -15 -7 7 23 24
43 24 9 0 17 -4 17 -9z m-262 -24 c2 -9 -2 -17 -8 -17 -7 0 -10 6 -7 14 3 8 2
17 -4 20 -5 2 -4 3 3 2 7 -1 14 -10 16 -19z m182 -2 c0 -8 -7 -15 -16 -15 -14
0 -14 3 -4 15 7 8 14 15 16 15 2 0 4 -7 4 -15z m-50 -20 c-7 -8 -16 -12 -21
-9 -13 8 -1 24 18 24 13 0 13 -3 3 -15z m235 -4 c0 -23 -22 -24 -28 -1 -4 16
-1 20 11 18 9 -2 17 -10 17 -17z m-275 -11 c0 -15 -26 -23 -41 -14 -9 5 -7 10
7 15 27 11 34 10 34 -1z m-280 -10 c0 -5 -4 -10 -10 -10 -5 0 -10 5 -10 10 0
6 5 10 10 10 6 0 10 -4 10 -10z m224 -16 c9 -23 0 -30 -18 -15 -16 14 -40 6
-30 -10 3 -6 -4 -7 -20 -3 -16 4 -26 2 -26 -5 0 -6 -4 -11 -10 -11 -22 0 -3
26 30 42 44 22 66 22 74 2z m-256 -31 c-10 -2 -26 -2 -35 0 -10 3 -2 5 17 5
19 0 27 -2 18 -5z m122 -13 c0 -13 -7 -20 -19 -20 -11 0 -22 -4 -26 -10 -3 -5
-12 -7 -19 -4 -7 3 -20 -2 -29 -10 -9 -9 -22 -16 -30 -16 -9 0 -17 -4 -19 -8
-1 -5 -22 -12 -46 -16 -40 -6 -42 -5 -30 14 7 10 26 22 42 26 17 4 37 10 46
14 49 25 100 41 109 36 6 -4 11 -2 11 3 0 6 2 11 5 11 3 0 5 -9 5 -20z m-210
-5 c0 -8 -4 -15 -10 -15 -5 0 -7 7 -4 15 4 8 8 15 10 15 2 0 4 -7 4 -15z
m1027 -28 c21 -11 19 -12 -22 -12 -39 0 -43 2 -28 13 20 15 22 15 50 -1z
m-773 -13 c4 -9 9 -14 13 -11 9 9 34 -13 27 -24 -3 -5 0 -9 7 -9 7 0 34 -22
61 -50 26 -27 50 -50 52 -50 2 0 1 11 -2 25 -3 18 0 25 11 25 8 0 18 -6 20
-12 3 -7 6 -1 6 14 1 38 34 55 67 33 13 -8 24 -20 24 -25 0 -5 9 -12 20 -15
11 -3 23 -18 26 -31 4 -15 12 -23 19 -20 7 2 36 -20 64 -50 28 -30 56 -54 61
-54 18 0 10 -28 -13 -47 -41 -33 -39 -43 5 -18 31 18 46 21 55 13 11 -9 10
-17 -7 -45 -30 -51 -24 -61 15 -23 28 27 38 31 47 22 10 -10 6 -19 -20 -43
-25 -23 -31 -35 -26 -55 4 -17 2 -24 -8 -24 -18 0 -78 67 -78 86 0 8 -7 14
-15 14 -9 0 -25 9 -37 20 -26 24 -40 26 -32 5 4 -8 9 -15 13 -15 8 0 91 -76
91 -84 0 -7 80 -86 87 -86 10 0 83 -78 83 -89 0 -6 7 -11 15 -11 8 0 15 -7 15
-15 0 -8 3 -15 8 -15 4 0 15 -12 25 -26 13 -18 16 -29 8 -37 -6 -8 -6 -18 -1
-27 8 -12 12 -11 26 9 16 23 18 23 31 5 12 -17 14 -17 30 -1 15 15 17 15 30
-1 12 -16 14 -16 29 3 11 14 18 16 21 8 7 -19 41 -16 45 5 3 15 6 15 22 -5 15
-17 23 -20 39 -12 10 6 24 8 31 6 7 -3 19 -1 26 3 7 5 24 4 36 0 14 -6 26 -5
29 0 4 7 13 6 25 0 10 -5 26 -7 34 -4 17 7 52 -3 44 -12 -3 -3 -86 -7 -184
-10 -99 -3 -232 -12 -298 -20 -110 -13 -151 -13 -114 1 15 6 14 45 -1 45 -18
-1 -31 -19 -29 -41 3 -23 0 -24 -70 -29 -81 -5 -101 0 -77 20 11 9 18 10 29 1
10 -8 16 -8 25 2 9 11 0 16 -45 27 -40 10 -53 17 -49 28 3 8 -3 16 -15 19 -11
3 -20 12 -20 19 0 8 -7 14 -16 14 -9 0 -18 9 -21 20 -3 11 -14 20 -24 20 -11
0 -18 3 -17 8 4 9 -34 47 -56 55 -9 4 -15 11 -11 16 3 6 -4 15 -15 21 -11 6
-20 17 -20 25 0 8 -6 15 -14 15 -8 0 -16 7 -20 15 -3 8 -12 15 -21 15 -8 0
-15 7 -15 15 0 8 -7 15 -16 15 -9 0 -18 9 -21 20 -3 11 -14 20 -24 20 -11 0
-19 7 -19 14 0 18 -43 66 -59 66 -6 0 -11 7 -11 15 0 8 -7 15 -15 15 -8 0 -15
9 -15 20 0 13 -7 20 -20 20 -11 0 -20 7 -20 15 0 8 -9 15 -21 15 -16 0 -19 4
-14 20 5 16 2 20 -14 20 -12 0 -21 7 -21 15 0 8 -9 15 -20 15 -13 0 -20 7 -20
20 0 11 -7 20 -15 20 -8 0 -15 6 -15 13 0 19 21 37 42 37 10 0 28 5 41 12 41
21 53 25 85 32 17 4 34 12 37 17 10 15 42 10 49 -7z m-424 -84 c-10 -19 -31
-25 -77 -21 -13 1 -23 -3 -23 -9 0 -7 -8 -9 -19 -5 -10 3 -23 -1 -30 -9 -6 -8
-21 -12 -31 -9 -11 3 -20 0 -20 -6 0 -6 -11 -11 -24 -11 -13 0 -26 -5 -28 -12
-3 -8 -12 -5 -27 9 l-22 21 45 6 c25 4 48 12 52 17 3 5 20 9 37 9 54 -2 122
12 130 26 4 8 17 14 28 14 17 0 18 -3 9 -20z m45 1 c-3 -6 -11 -8 -17 -5 -6 4
-5 9 3 15 16 10 23 4 14 -10z m2332 -53 c-3 -7 -5 -2 -5 12 0 14 2 19 5 13 2
-7 2 -19 0 -25z m-2447 -18 c6 -11 17 -20 25 -20 8 0 15 -4 15 -9 0 -5 9 -13
20 -16 11 -3 20 -13 20 -21 0 -8 7 -14 15 -14 8 0 15 -9 15 -20 0 -13 7 -20
20 -20 11 0 20 -7 20 -15 0 -8 5 -15 11 -15 15 0 59 -42 59 -57 0 -7 7 -13 16
-13 9 0 18 -9 21 -20 3 -11 10 -20 16 -20 13 0 82 -72 90 -94 4 -9 13 -16 22
-16 8 0 15 -6 15 -14 0 -8 9 -18 20 -21 11 -3 20 -13 20 -21 0 -8 7 -14 15
-14 8 0 15 -9 15 -20 0 -13 7 -20 20 -20 11 0 20 -7 20 -15 0 -9 7 -18 15 -21
8 -4 15 -12 15 -19 0 -7 7 -15 15 -19 8 -3 15 -12 15 -21 0 -8 5 -15 10 -15
10 0 50 -36 50 -45 0 -3 -6 -5 -13 -5 -7 0 -18 -9 -25 -20 -10 -17 -10 -21 3
-26 8 -4 22 -1 30 6 8 6 23 9 35 5 12 -4 20 -2 20 5 0 8 10 9 29 5 21 -4 30
-2 35 10 7 18 26 11 26 -9 0 -8 -19 -16 -52 -20 -29 -3 -71 -12 -93 -20 -22
-8 -62 -17 -89 -21 -47 -7 -48 -7 -36 15 13 25 8 35 -15 26 -10 -4 -15 -15
-13 -33 3 -26 0 -28 -42 -34 -51 -7 -55 -6 -46 17 5 13 9 14 22 4 18 -16 40 0
31 23 -4 10 -21 12 -68 9 -53 -3 -62 -2 -51 9 18 20 15 32 -9 26 -15 -4 -22 1
-29 19 -5 13 -14 24 -20 24 -5 0 -10 9 -10 21 0 12 -4 17 -11 14 -6 -4 -13 2
-16 14 -3 12 -13 21 -24 21 -12 0 -19 7 -19 19 0 21 -22 33 -44 25 -10 -4 -16
6 -21 35 -5 29 -10 38 -21 34 -10 -4 -17 2 -21 16 -3 11 -12 21 -20 21 -8 0
-17 9 -20 20 -3 11 -12 20 -19 20 -8 0 -14 7 -14 15 0 8 -7 15 -15 15 -9 0
-19 8 -23 18 -4 9 -14 17 -22 17 -8 0 -14 7 -12 16 1 10 -6 19 -19 22 -15 4
-20 11 -16 21 5 11 0 16 -13 16 -14 0 -20 7 -20 21 0 16 -4 19 -20 14 -18 -6
-25 3 -21 28 0 4 -6 7 -14 7 -8 0 -15 7 -15 15 0 8 -9 15 -20 15 -13 0 -20 7
-20 20 0 12 -7 20 -16 20 -9 0 -14 7 -12 18 3 12 12 16 31 14 15 -1 27 1 27 6
0 5 26 15 58 21 31 6 75 18 97 26 52 18 52 18 65 -5z m-223 -4 c13 -12 -9 -25
-27 -16 -14 8 -21 6 -27 -4 -6 -11 -13 -12 -23 -6 -10 7 -11 10 -2 10 6 0 12
6 12 14 0 10 9 13 31 11 18 -3 34 -6 36 -9z m-187 -39 c-14 -6 -27 -14 -30
-17 -8 -9 -50 -30 -50 -26 0 2 -3 11 -6 19 -4 12 0 14 15 10 12 -3 21 -1 21 5
0 6 12 13 28 15 45 7 48 6 22 -6z m-110 -33 c0 -9 -5 -14 -12 -12 -18 6 -21
28 -4 28 9 0 16 -7 16 -16z m-42 -6 c-3 -7 -26 -17 -51 -22 -26 -4 -47 -12
-47 -17 0 -5 -11 -7 -25 -3 -16 4 -25 2 -25 -6 0 -7 -8 -9 -20 -5 -13 4 -22 1
-26 -9 -4 -11 -14 -13 -35 -9 -19 3 -29 1 -29 -6 0 -7 -5 -9 -10 -6 -18 11 14
32 61 40 24 4 52 12 62 17 10 5 31 12 45 14 15 3 31 9 37 15 14 14 67 11 63
-3z m32 -33 c7 -8 17 -15 22 -15 5 0 22 -13 38 -30 16 -16 34 -30 40 -30 5 0
10 -9 10 -20 0 -14 6 -20 18 -18 11 2 17 -3 16 -14 -1 -11 5 -18 17 -18 11 0
19 -7 19 -15 0 -8 9 -15 20 -15 13 0 20 -7 20 -20 0 -13 7 -20 20 -20 13 0 20
-7 20 -20 0 -11 4 -20 10 -20 5 0 26 -16 46 -35 19 -19 40 -35 45 -35 5 0 9
-7 9 -15 0 -8 7 -15 15 -15 8 0 15 -7 15 -15 0 -9 7 -18 16 -22 24 -9 64 -48
64 -62 0 -8 8 -10 20 -6 16 5 20 2 20 -14 0 -12 7 -21 15 -21 14 0 20 -12 16
-33 -1 -5 8 -11 19 -14 11 -3 20 -11 20 -18 0 -7 7 -15 15 -19 8 -3 15 -12 15
-21 0 -8 9 -15 20 -15 17 0 18 -3 9 -19 -7 -10 -9 -26 -5 -36 6 -17 8 -16 28
4 16 18 22 20 29 9 6 -10 13 -10 26 -2 10 6 24 9 31 7 22 -8 12 -21 -20 -26
-18 -3 -64 -13 -103 -22 -156 -36 -147 -36 -140 -8 6 24 4 24 -47 23 -97 -3
-138 0 -138 10 0 6 10 10 23 10 22 1 22 1 2 16 -11 8 -19 20 -18 25 2 5 -9 12
-23 15 -16 4 -23 12 -20 20 3 9 -4 16 -19 20 -14 3 -23 10 -20 15 3 4 -4 13
-15 19 -11 6 -20 18 -20 27 0 11 -7 14 -24 11 -14 -3 -31 -1 -38 3 -10 7 -8 9
5 9 11 0 17 5 14 13 -2 6 -17 11 -33 10 -16 -1 -23 0 -16 3 17 8 15 34 -3 34
-8 0 -15 9 -15 21 0 16 -4 19 -20 14 -16 -5 -20 -2 -20 14 0 13 -6 21 -16 21
-9 0 -18 9 -21 20 -3 11 -12 20 -19 20 -8 0 -14 5 -14 10 0 6 -9 10 -20 10
-15 0 -20 7 -20 25 0 18 -4 23 -15 19 -9 -4 -15 0 -15 9 0 9 -9 19 -20 22 -11
3 -20 15 -20 25 0 13 -5 17 -20 13 -15 -4 -20 0 -20 16 0 11 -5 21 -11 21 -6
0 -26 16 -45 36 l-34 37 26 14 c15 7 29 11 32 8 3 -3 10 -1 16 3 6 5 38 16 71
26 33 9 67 21 75 26 21 13 26 12 40 -5z m2310 -9 c0 -2 -7 -7 -16 -10 -8 -3
-12 -2 -9 4 6 10 25 14 25 6z m-2640 -46 c0 -5 -6 -10 -14 -10 -8 0 -18 5 -21
10 -3 6 3 10 14 10 12 0 21 -4 21 -10z m-50 -10 c0 -5 -4 -10 -10 -10 -5 0
-10 5 -10 10 0 6 5 10 10 10 6 0 10 -4 10 -10z m-610 -5 c0 -2 -9 -9 -20 -15
-16 -9 -20 -8 -20 5 0 8 9 15 20 15 11 0 20 -2 20 -5z m440 -9 c0 -2 -7 -7
-16 -10 -8 -3 -12 -2 -9 4 6 10 25 14 25 6z m73 -3 c-7 -2 -19 -2 -25 0 -7 3
-2 5 12 5 14 0 19 -2 13 -5z m-603 -23 c0 -5 -7 -10 -16 -10 -8 0 -12 5 -9 10
3 6 10 10 16 10 5 0 9 -4 9 -10z m160 0 c0 -5 -5 -10 -11 -10 -5 0 -7 5 -4 10
3 6 8 10 11 10 2 0 4 -4 4 -10z m2556 -45 c7 -28 11 -29 49 -15 20 8 27 7 32
-6 3 -8 1 -20 -6 -27 -18 -18 -13 -26 20 -40 30 -12 31 -14 15 -30 -12 -12
-34 -17 -71 -17 -46 0 -56 4 -74 26 -23 30 -27 70 -9 109 14 32 36 32 44 0z
m-2759 -17 c-3 -7 -5 -2 -5 12 0 14 2 19 5 13 2 -7 2 -19 0 -25z m-96 -9 c-13
-10 -30 -19 -39 -19 -18 0 -12 7 25 30 36 22 45 14 14 -11z m579 -29 c0 -13
-7 -20 -20 -20 -25 0 -27 27 -2 33 9 3 18 5 20 6 1 0 2 -8 2 -19z m-660 3 c0
-3 -8 -15 -17 -26 -10 -11 -13 -22 -8 -24 24 -8 39 -22 32 -29 -4 -4 -17 2
-30 13 -23 21 -57 20 -57 -2 0 -19 -40 -26 -57 -9 -16 16 -9 34 13 34 9 0 12
-5 8 -12 -4 -7 -3 -8 5 -4 6 4 9 12 6 17 -5 8 16 14 38 10 4 0 7 4 7 9 0 6 10
15 23 20 28 11 37 12 37 3z m781 -80 c13 -15 12 -15 -6 -6 -11 6 -27 13 -35
16 -10 4 -8 6 6 6 12 1 28 -6 35 -16z m-941 -3 c0 -5 -4 -10 -10 -10 -5 0 -10
5 -10 10 0 6 5 10 10 10 6 0 10 -4 10 -10z m850 -16 c0 -14 -3 -14 -15 -4 -8
7 -15 14 -15 16 0 2 7 4 15 4 8 0 15 -7 15 -16z m1065 -74 c-3 -5 -10 -10 -16
-10 -5 0 -9 5 -9 10 0 6 7 10 16 10 8 0 12 -4 9 -10z m-1625 -10 c0 -5 -6 -10
-14 -10 -7 0 -19 -7 -26 -15 -17 -21 -24 -12 -10 14 11 21 50 30 50 11z m157
-15 c35 -18 38 -18 56 -1 11 11 21 12 50 3 47 -15 57 -37 17 -37 -17 0 -30 4
-30 10 0 6 -10 5 -25 -2 -19 -9 -31 -8 -49 2 -13 7 -29 10 -34 6 -5 -3 -12 1
-16 9 -3 8 -15 15 -27 15 -14 0 -19 -5 -16 -14 6 -16 -6 -13 -49 9 -18 9 -12
11 37 12 35 1 70 -4 86 -12z m3530 9 c-3 -3 -12 -4 -19 -1 -8 3 -5 6 6 6 11 1
17 -2 13 -5z m-3187 -23 c0 -11 -11 -13 -55 -8 -30 3 -57 1 -60 -4 -4 -5 -14
-9 -23 -8 -11 0 -12 3 -4 6 6 2 12 11 12 18 0 9 18 12 65 12 49 -1 65 -5 65
-16z m-825 -1 c3 -5 -1 -10 -10 -10 -9 0 -13 5 -10 10 3 6 8 10 10 10 2 0 7
-4 10 -10z m900 -1 c11 -16 1 -20 -34 -13 -23 5 -29 9 -19 15 18 12 46 11 53
-2z m62 5 c-3 -3 -12 -4 -19 -1 -8 3 -5 6 6 6 11 1 17 -2 13 -5z m2568 -4 c16
-7 12 -9 -18 -9 -23 -1 -36 3 -32 9 7 12 23 12 50 0z m172 4 c-3 -3 -12 -4
-19 -1 -8 3 -5 6 6 6 11 1 17 -2 13 -5z m101 -1 c-10 -2 -26 -2 -35 0 -10 3
-2 5 17 5 19 0 27 -2 18 -5z m-2684 -9 c25 -10 19 -21 -14 -26 -34 -5 -51 9
-29 23 17 10 23 11 43 3z m146 -4 c0 -13 -11 -13 -30 0 -12 8 -11 10 8 10 12
0 22 -4 22 -10z m298 -2 c20 -20 14 -30 -10 -17 -13 7 -24 12 -25 11 -11 -7
-43 0 -38 8 9 14 58 13 73 -2z m1879 6 c-3 -3 -12 -4 -19 -1 -8 3 -5 6 6 6 11
1 17 -2 13 -5z m-2117 -25 c0 -6 -4 -7 -10 -4 -5 3 -10 11 -10 16 0 6 5 7 10
4 6 -3 10 -11 10 -16z m87 15 c-3 -3 -12 -4 -19 -1 -8 3 -5 6 6 6 11 1 17 -2
13 -5z m2837 0 c22 -9 10 -24 -20 -24 -23 0 -31 10 -17 23 8 9 17 9 37 1z
m-4300 -27 c-5 -13 -55 -47 -69 -47 -4 0 7 15 26 34 32 33 53 39 43 13z m1037
0 c-10 -9 -11 -8 -5 6 3 10 9 15 12 12 3 -3 0 -11 -7 -18z m3114 13 c12 10 18
10 29 1 10 -8 16 -9 21 -1 8 12 45 14 45 1 0 -18 -263 -34 -267 -16 -2 6 22
10 56 10 33 0 63 3 67 7 4 4 13 3 21 -3 10 -9 17 -8 28 1z m-4088 -16 c-3 -3
-12 -4 -19 -1 -8 3 -5 6 6 6 11 1 17 -2 13 -5z m3893 -4 c0 -5 -12 -10 -27
-10 -22 0 -25 2 -13 10 20 13 40 13 40 0z m-3445 -10 c-3 -5 -12 -7 -20 -3
-21 7 -19 13 6 13 11 0 18 -4 14 -10z m1085 0 c0 -5 -2 -10 -4 -10 -3 0 -8 5
-11 10 -3 6 -1 10 4 10 6 0 11 -4 11 -10z m2240 0 c0 -5 -9 -10 -20 -10 -11 0
-20 5 -20 10 0 6 9 10 20 10 11 0 20 -4 20 -10z m47 -1 c-14 -8 -22 -8 -30 0
-8 8 -3 11 19 11 25 -1 27 -2 11 -11z m-3854 -13 c4 -10 1 -13 -8 -9 -8 3 -12
9 -9 14 7 12 11 11 17 -5z m762 4 c3 -5 -3 -10 -15 -10 -12 0 -18 5 -15 10 3
6 10 10 15 10 5 0 12 -4 15 -10z m790 -31 c11 -17 -1 -21 -15 -4 -8 9 -8 15
-2 15 6 0 14 -5 17 -11z m-970 -6 c-16 -3 -37 -10 -45 -16 -13 -10 -13 -10 -1
6 8 10 25 16 45 16 l31 -2 -30 -4z m1125 -2 c0 -6 -4 -13 -10 -16 -5 -3 -10 1
-10 9 0 9 5 16 10 16 6 0 10 -4 10 -9z m1202 -3 c8 7 19 7 28 2 20 -12 12 -17
-42 -22 -52 -6 -63 -1 -47 18 8 10 15 10 29 2 14 -9 22 -9 32 0z m-2146 -10
c-9 -5 -23 -5 -32 0 -12 6 -7 9 16 9 23 0 28 -3 16 -9z m3801 6 c-3 -3 -12 -4
-19 -1 -8 3 -5 6 6 6 11 1 17 -2 13 -5z m-2905 -56 c-9 -9 -12 -8 -12 5 0 9
-5 17 -11 17 -5 0 -7 5 -3 11 4 7 11 6 22 -5 13 -12 14 -18 4 -28z m1775 36
c-5 -6 -23 -8 -127 -18 -19 -2 -35 -5 -35 -6 0 -2 -22 -4 -50 -5 -27 -1 -79
-6 -115 -10 -36 -5 -83 -9 -105 -9 -22 -1 -45 -5 -52 -9 -6 -4 -15 -3 -18 3
-5 8 -11 8 -20 0 -8 -7 -19 -9 -24 -6 -5 4 -12 2 -16 -3 -3 -6 -12 -8 -20 -4
-8 3 -23 2 -32 -2 -10 -4 -34 -9 -53 -12 -53 -7 -63 -9 -93 -21 -15 -7 -31
-11 -35 -10 -4 1 -15 -2 -25 -7 -10 -4 -21 -5 -24 -1 -3 3 -11 2 -17 -3 -6 -5
-26 -12 -45 -16 -25 -5 -32 -4 -29 6 8 24 300 85 473 99 72 5 159 15 195 20
112 18 279 26 267 14z m-1890 -35 c-13 -20 -27 -25 -27 -9 0 6 5 10 11 10 6 0
9 7 6 14 -4 10 -1 13 8 10 11 -5 12 -10 2 -25z m2648 1 c4 -6 -10 -10 -32 -10
-97 0 -855 -40 -863 -45 -6 -4 -10 -2 -10 3 0 18 53 22 355 33 165 5 327 13
360 17 95 11 184 12 190 2z m-3640 -10 c-3 -5 -10 -10 -16 -10 -5 0 -9 5 -9
10 0 6 7 10 16 10 8 0 12 -4 9 -10z m1105 -41 c0 -5 -4 -9 -10 -9 -5 0 -10 4
-10 9 0 5 -10 7 -22 3 -14 -3 -19 -1 -14 6 3 6 2 13 -4 17 -6 4 -8 11 -4 16 6
10 64 -27 64 -42z m677 45 c-3 -3 -12 -4 -19 -1 -8 3 -5 6 6 6 11 1 17 -2 13
-5z m-67 -8 c0 -9 -30 -14 -35 -6 -4 6 3 10 14 10 12 0 21 -2 21 -4z m127 -48
c-5 -3 -16 -4 -24 -1 -10 4 -11 9 -2 19 8 10 14 11 24 1 8 -8 9 -14 2 -19z
m-839 11 c-2 -6 -8 -10 -13 -10 -5 0 -11 4 -13 10 -2 6 4 11 13 11 9 0 15 -5
13 -11z m2639 -21 c-3 -7 -5 -2 -5 12 0 14 2 19 5 13 2 -7 2 -19 0 -25z
m-1857 1 c0 -5 -10 -9 -21 -9 -18 0 -19 2 -9 15 12 15 30 12 30 -6z m2035 1
c3 -5 1 -10 -4 -10 -6 0 -11 5 -11 10 0 6 2 10 4 10 3 0 8 -4 11 -10z m-3765
-20 c-6 -4 -10 -18 -8 -31 2 -19 9 -24 33 -24 17 0 32 -4 35 -10 3 -5 -15 -8
-45 -6 -57 3 -60 5 -49 23 17 27 14 48 -6 48 -11 0 -20 4 -20 8 0 4 16 6 36 4
21 -3 31 -8 24 -12z m3440 10 c0 -5 -5 -10 -11 -10 -5 0 -7 5 -4 10 3 6 8 10
11 10 2 0 4 -4 4 -10z m-3380 -10 c0 -5 -4 -10 -10 -10 -5 0 -10 5 -10 10 0 6
5 10 10 10 6 0 10 -4 10 -10z m3020 0 c0 -5 -2 -10 -4 -10 -3 0 -8 5 -11 10
-3 6 -1 10 4 10 6 0 11 -4 11 -10z m-1895 -10 c-10 -16 -104 -21 -378 -22
-155 0 -289 -4 -298 -9 -12 -6 -21 -4 -29 6 -11 13 22 15 271 16 156 1 297 4
314 8 44 9 126 10 120 1z m692 -2 c-2 -7 -14 -12 -26 -11 -11 2 -21 -2 -21 -7
0 -6 -11 -8 -25 -4 -16 4 -25 2 -25 -6 0 -7 -8 -9 -20 -5 -11 4 -20 2 -20 -4
0 -6 -7 -11 -15 -11 -23 0 -18 19 8 29 20 8 103 26 135 30 8 0 12 -5 9 -11z
m1634 -21 c-16 -16 -26 0 -10 19 9 11 15 12 17 4 2 -6 -1 -17 -7 -23z m479 24
c0 -5 -7 -11 -15 -15 -15 -5 -20 5 -8 17 9 10 23 9 23 -2z m-3823 -7 c-3 -3
-12 -4 -19 -1 -8 3 -5 6 6 6 11 1 17 -2 13 -5z m2520 -26 c-3 -7 -5 -2 -5 12
0 14 2 19 5 13 2 -7 2 -19 0 -25z m-2379 15 c-16 -2 -40 -2 -55 0 -16 2 -3 4
27 4 30 0 43 -2 28 -4z m133 -7 c-24 -29 10 -61 37 -34 9 9 15 8 27 -8 14 -18
16 -18 26 -1 5 9 16 17 23 17 8 0 17 -8 21 -17 6 -16 8 -16 25 5 21 26 30 28
30 8 0 -23 20 -30 33 -12 11 15 14 15 29 -4 12 -14 14 -20 5 -21 -46 -3 -473
3 -479 7 -4 3 -3 15 3 26 l11 21 17 -22 c15 -20 19 -21 30 -7 12 14 15 14 34
1 20 -14 23 -13 39 7 l18 23 6 -22 c8 -28 20 -29 34 -4 17 33 12 40 -32 44
-37 3 -34 4 16 5 49 2 57 0 47 -12z m933 -2 c8 -22 9 -22 -53 -30 -52 -7 -53
-6 -40 14 12 19 15 20 30 6 14 -12 18 -12 27 -1 7 8 9 17 5 20 -3 4 1 7 9 7 9
0 19 -7 22 -16z m1671 6 c-3 -5 -13 -10 -21 -10 -8 0 -12 5 -9 10 3 6 13 10
21 10 8 0 12 -4 9 -10z m145 2 c0 -5 -16 -8 -35 -8 -46 1 -46 16 0 16 19 0 35
-4 35 -8z m90 4 c0 -2 -13 -6 -29 -8 -17 -2 -28 -1 -25 4 5 8 54 12 54 4z m95
-14 c-3 -3 -11 0 -18 7 -9 10 -8 11 6 5 10 -3 15 -9 12 -12z m-545 -3 c0 -14
-14 -18 -27 -8 -10 9 -19 7 -38 -5 -14 -9 -25 -12 -25 -7 0 16 32 30 62 28 16
-1 28 -5 28 -8z m80 7 c0 -2 -11 -6 -25 -8 -14 -3 -25 -1 -25 3 0 5 11 9 25 9
14 0 25 -2 25 -4z m-1225 -16 c-11 -5 -14 -9 -7 -9 7 -1 10 -6 6 -12 -4 -8 -9
-7 -15 2 -8 12 -12 11 -23 -3 -10 -14 -15 -15 -25 -5 -10 9 -15 8 -25 -6 -12
-15 -15 -15 -26 -2 -14 17 -9 21 60 34 59 12 80 12 55 1z m-1526 -10 c27 14
31 13 31 -11 0 -19 -4 -20 -47 -13 -55 8 -57 9 -48 23 4 8 12 8 26 1 13 -7 25
-7 38 0z m1024 -20 c-4 -4 -27 -10 -50 -14 -36 -5 -43 -3 -43 10 0 13 6 15 30
10 22 -4 32 -1 37 9 4 12 8 13 20 4 7 -7 10 -15 6 -19z m70 15 c1 -5 -6 -11
-15 -13 -11 -2 -18 3 -18 13 0 17 30 18 33 0z m-215 -16 c15 8 23 7 32 -4 10
-12 -5 -14 -97 -17 -120 -4 -144 1 -118 22 10 8 19 10 23 4 4 -5 28 -10 55
-10 35 -1 47 3 47 14 0 13 3 12 19 -2 15 -14 24 -15 39 -7z m2242 11 c0 -5 -2
-10 -4 -10 -3 0 -8 5 -11 10 -3 6 -1 10 4 10 6 0 11 -4 11 -10z m-2522 -12
c10 -10 17 -10 31 -1 15 10 22 9 31 -1 9 -11 2 -15 -37 -18 -56 -5 -64 -3 -56
17 6 18 15 19 31 3z m787 -9 c-4 -6 -14 -8 -22 -5 -9 4 -21 1 -29 -4 -7 -6
-27 -12 -44 -12 -17 -1 -33 -5 -36 -9 -2 -5 -11 -6 -19 -2 -9 3 -21 0 -29 -6
-12 -10 -26 -6 -26 9 0 4 26 12 58 18 31 7 66 13 77 16 42 8 76 6 70 -5z
m1640 1 c4 -6 -7 -10 -27 -9 -31 1 -32 1 -8 9 14 4 26 8 27 9 1 1 5 -3 8 -9z
m-3725 -4 c0 -3 -4 -8 -10 -11 -5 -3 -10 -1 -10 4 0 6 5 11 10 11 6 0 10 -2
10 -4z m3575 -14 c-3 -3 -11 0 -18 7 -9 10 -8 11 6 5 10 -3 15 -9 12 -12z
m-3545 -12 c0 -5 -4 -10 -10 -10 -5 0 -10 -7 -10 -15 0 -10 9 -14 30 -11 18 2
35 -3 42 -12 11 -13 10 -14 -7 -9 -11 3 -37 8 -57 12 -43 7 -45 11 -21 37 18
20 33 24 33 8z m-75 -10 c-11 -5 -27 -9 -35 -9 -9 0 -8 4 5 9 11 5 27 9 35 9
9 0 8 -4 -5 -9z m1907 -2 c-7 -7 -27 -14 -45 -15 -17 -2 -41 -4 -51 -5 -10 -2
-21 2 -23 9 -4 12 24 19 92 22 31 1 36 -2 27 -11z m-1577 -8 c3 -5 1 -10 -4
-10 -6 0 -11 5 -11 10 0 6 2 10 4 10 3 0 8 -4 11 -10z m3841 2 c-6 -10 -293
-29 -581 -38 -335 -11 -319 -12 -323 11 -2 15 -1 16 6 7 8 -11 69 -12 358 -2
291 10 449 19 532 28 7 1 11 -2 8 -6z m-3801 -12 c3 -5 1 -10 -4 -10 -6 0 -11
5 -11 10 0 6 2 10 4 10 3 0 8 -4 11 -10z m50 0 c3 -5 24 -10 46 -10 22 0 38
-4 35 -9 -3 -5 -25 -5 -48 0 -24 4 -46 8 -50 9 -12 0 -10 20 1 20 6 0 13 -4
16 -10z m-240 -20 c3 -5 -1 -10 -9 -10 -8 0 -18 5 -21 10 -3 6 1 10 9 10 8 0
18 -4 21 -10z m45 1 c0 -12 -20 -25 -27 -18 -7 7 6 27 18 27 5 0 9 -4 9 -9z
m420 -7 c0 -8 -5 -12 -10 -9 -6 4 -8 11 -5 16 9 14 15 11 15 -7z m-314 -21
c-10 -10 -19 5 -10 18 6 11 8 11 12 0 2 -7 1 -15 -2 -18z m94 7 c0 -5 -5 -10
-11 -10 -5 0 -7 5 -4 10 3 6 8 10 11 10 2 0 4 -4 4 -10z m3965 0 c-3 -5 -11
-10 -16 -10 -6 0 -7 5 -4 10 3 6 11 10 16 10 6 0 7 -4 4 -10z m-4289 -27 c-10
-10 -19 5 -10 18 6 11 8 11 12 0 2 -7 1 -15 -2 -18z m642 2 c-3 -3 -9 2 -12
12 -6 14 -5 15 5 6 7 -7 10 -15 7 -18z m-588 5 c0 -5 -4 -10 -10 -10 -5 0 -10
5 -10 10 0 6 5 10 10 10 6 0 10 -4 10 -10z m40 1 c0 -6 -4 -13 -10 -16 -5 -3
-10 1 -10 9 0 9 5 16 10 16 6 0 10 -4 10 -9z m90 -11 c-6 -11 -16 -17 -22 -14
-7 5 -5 12 7 21 25 18 28 17 15 -7z m237 -19 c-10 -4 -27 17 -27 33 0 5 8 1
19 -10 10 -10 14 -21 8 -23z m143 18 c0 -6 -4 -7 -10 -4 -5 3 -10 11 -10 16 0
6 5 7 10 4 6 -3 10 -11 10 -16z m333 14 c-7 -2 -19 -2 -25 0 -7 3 -2 5 12 5
14 0 19 -2 13 -5z m-527 -25 c9 -14 -2 -21 -25 -13 -28 8 -28 35 -1 28 11 -3
23 -10 26 -15z m454 12 c0 -5 -4 -10 -10 -10 -5 0 -10 5 -10 10 0 6 5 10 10
10 6 0 10 -4 10 -10z m-700 -10 c0 -5 -5 -10 -11 -10 -5 0 -7 5 -4 10 3 6 8
10 11 10 2 0 4 -4 4 -10z m660 0 c0 -5 -5 -10 -11 -10 -5 0 -7 5 -4 10 3 6 8
10 11 10 2 0 4 -4 4 -10z m-258 -15 c0 -5 -5 -11 -11 -13 -6 -2 -11 4 -11 13
0 9 5 15 11 13 6 -2 11 -8 11 -13z m-302 -5 c0 -5 -7 -10 -16 -10 -8 0 -12 5
-9 10 3 6 10 10 16 10 5 0 9 -4 9 -10z m40 -5 c0 -8 -4 -15 -10 -15 -5 0 -7 7
-4 15 4 8 8 15 10 15 2 0 4 -7 4 -15z m34 -19 c-6 -15 -24 -23 -24 -11 0 8 24
34 28 30 1 -1 0 -10 -4 -19z m147 -9 c-13 -13 -26 -3 -16 12 3 6 11 8 17 5 6
-4 6 -10 -1 -17z m269 19 c0 -3 -4 -8 -10 -11 -5 -3 -10 -1 -10 4 0 6 5 11 10
11 6 0 10 -2 10 -4z m97 -2 c-3 -3 -12 -4 -19 -1 -8 3 -5 6 6 6 11 1 17 -2 13
-5z m443 -4 c-20 -13 -33 -13 -25 0 3 6 14 10 23 10 15 0 15 -2 2 -10z m-383
-6 c-3 -3 -12 -4 -19 -1 -8 3 -5 6 6 6 11 1 17 -2 13 -5z m58 -4 c-3 -5 -12
-10 -20 -10 -8 0 -19 -8 -24 -17 -10 -17 -10 -17 -11 -1 0 17 25 37 48 38 7 0
10 -4 7 -10z m-285 -16 c0 -8 -5 -12 -10 -9 -6 4 -8 11 -5 16 9 14 15 11 15
-7z m97 -16 c-3 -8 -6 -5 -6 6 -1 11 2 17 5 13 3 -3 4 -12 1 -19z m-47 8 c0
-3 -4 -8 -10 -11 -5 -3 -10 -1 -10 4 0 6 5 11 10 11 6 0 10 -2 10 -4z m240
-16 c0 -5 -5 -10 -11 -10 -5 0 -7 5 -4 10 3 6 8 10 11 10 2 0 4 -4 4 -10z
m-113 -26 c-3 -3 -12 -4 -19 -1 -8 3 -5 6 6 6 11 1 17 -2 13 -5z m96 -1 c-13
-2 -35 -2 -50 0 -16 2 -5 4 22 4 28 0 40 -2 28 -4z"/>
<path d="M3647 3846 c-4 -10 -1 -13 9 -9 7 3 14 9 14 14 0 14 -17 10 -23 -5z"/>
<path d="M3597 3814 c-8 -8 1 -24 14 -24 5 0 9 7 9 15 0 15 -12 20 -23 9z"/>
<path d="M3653 3786 c-28 -13 -29 -23 -3 -31 11 -3 20 -13 20 -21 0 -8 4 -14
9 -14 5 0 7 9 4 20 -3 12 1 22 11 26 9 3 16 10 16 14 0 13 -34 16 -57 6z"/>
<path d="M3770 3755 c0 -8 -9 -15 -20 -15 -12 0 -17 -5 -14 -14 4 -11 13 -11
44 -4 41 11 43 20 9 38 -15 9 -19 7 -19 -5z"/>
<path d="M3710 3690 c0 -5 5 -10 10 -10 6 0 10 5 10 10 0 6 -4 10 -10 10 -5 0
-10 -4 -10 -10z"/>
<path d="M3808 3693 c-20 -5 -23 -18 -8 -28 5 -3 18 3 30 15 19 19 14 23 -22
13z"/>
<path d="M3740 3660 c0 -5 5 -10 11 -10 5 0 7 5 4 10 -3 6 -8 10 -11 10 -2 0
-4 -4 -4 -10z"/>
<path d="M4062 3238 c-18 -18 -15 -28 8 -28 13 0 20 7 20 20 0 23 -10 26 -28
8z"/>
<path d="M3935 3210 c-7 -12 2 -30 16 -30 5 0 9 9 9 20 0 21 -15 27 -25 10z"/>
<path d="M3457 3143 c-4 -3 -7 -12 -7 -20 0 -17 26 -17 33 1 8 21 -11 35 -26
19z"/>
<path d="M2972 3033 c5 -25 28 -28 28 -4 0 12 -6 21 -16 21 -9 0 -14 -7 -12
-17z"/>
<path d="M2916 3024 c-9 -22 -8 -24 9 -24 8 0 15 9 15 20 0 24 -15 27 -24 4z"/>
<path d="M3257 4382 c-18 -20 -22 -49 -8 -71 6 -10 13 -11 29 -2 11 6 30 11
41 11 29 0 26 11 -12 48 -32 31 -34 32 -50 14z"/>
<path d="M2943 4276 c4 -44 9 -81 11 -84 3 -2 21 2 40 9 37 13 47 35 22 45 -8
3 -21 22 -29 43 -9 20 -23 44 -33 52 -16 13 -17 9 -11 -65z"/>
<path d="M3308 4292 c-28 -9 -48 -22 -48 -30 0 -10 6 -12 18 -7 9 4 26 10 37
13 11 2 25 9 31 14 6 4 20 5 30 1 17 -6 17 -5 5 10 -16 20 -12 20 -73 -1z"/>
<path d="M3611 4234 c0 -11 3 -14 6 -6 3 7 2 16 -1 19 -3 4 -6 -2 -5 -13z"/>
<path d="M2676 4173 c-8 -36 -5 -113 4 -113 4 0 13 7 20 15 9 11 9 15 1 15 -7
0 -9 5 -6 10 10 16 35 12 29 -5 -5 -12 2 -14 34 -12 42 3 76 23 66 39 -4 5
-15 7 -26 4 -15 -3 -32 6 -60 35 -21 21 -43 39 -48 39 -4 0 -11 -12 -14 -27z"/>
<path d="M3194 4139 c-3 -6 -1 -16 5 -22 13 -13 42 0 49 21 5 15 -44 16 -54 1z"/>
<path d="M2800 4044 c0 -8 5 -12 10 -9 6 4 8 11 5 16 -9 14 -15 11 -15 -7z"/>
<path d="M2390 4028 c0 -17 2 -18 15 -8 8 7 15 14 15 15 0 2 -7 5 -15 9 -10 4
-15 -1 -15 -16z"/>
<path d="M2485 4024 l-30 -14 34 5 c18 3 37 5 42 5 5 0 9 5 9 10 0 14 -19 12
-55 -6z"/>
<path d="M2670 4004 c0 -8 5 -12 10 -9 6 3 10 10 10 16 0 5 -4 9 -10 9 -5 0
-10 -7 -10 -16z"/>
<path d="M2765 4010 c-3 -5 -1 -10 4 -10 6 0 11 5 11 10 0 6 -2 10 -4 10 -3 0
-8 -4 -11 -10z"/>
<path d="M1956 3981 c-17 -11 -67 -32 -113 -47 -75 -25 -94 -39 -77 -56 3 -3
17 0 32 8 15 7 52 17 83 22 76 12 182 92 122 92 -10 0 -31 -9 -47 -19z"/>
<path d="M2770 3964 c0 -8 5 -12 10 -9 6 3 15 -6 20 -20 8 -22 13 -25 24 -16
12 10 10 16 -9 36 -25 28 -45 32 -45 9z"/>
<path d="M2475 3960 c-3 -5 -1 -11 5 -15 5 -3 10 -15 10 -26 0 -21 34 -26 60
-9 13 9 13 11 0 20 -13 8 -12 10 3 10 9 0 17 6 17 14 0 15 -86 21 -95 6z"/>
<path d="M2178 3933 c6 -2 18 -2 25 0 6 3 1 5 -13 5 -14 0 -19 -2 -12 -5z"/>
<path d="M2572 3919 c2 -7 10 -15 17 -17 8 -3 12 1 9 9 -2 7 -10 15 -17 17 -8
3 -12 -1 -9 -9z"/>
<path d="M2223 3885 c0 -26 11 -33 22 -15 4 6 11 8 16 5 13 -9 11 9 -3 23 -20
20 -35 14 -35 -13z"/>
<path d="M2430 3896 c0 -2 8 -10 18 -17 15 -13 16 -12 3 4 -13 16 -21 21 -21
13z"/>
<path d="M2328 3873 c7 -3 16 -2 19 1 4 3 -2 6 -13 5 -11 0 -14 -3 -6 -6z"/>
<path d="M1592 3841 c-28 -38 -23 -65 13 -69 38 -5 46 7 34 50 -13 49 -22 53
-47 19z"/>
<path d="M1538 3663 c6 -2 18 -2 25 0 6 3 1 5 -13 5 -14 0 -19 -2 -12 -5z"/>
<path d="M1595 3650 c4 -6 11 -8 16 -5 14 9 11 15 -7 15 -8 0 -12 -5 -9 -10z"/>
<path d="M733 3390 c-5 -19 -33 -34 -62 -35 -8 0 -16 -6 -19 -13 -3 -10 4 -13
24 -12 47 3 49 1 23 -26 l-24 -26 30 4 c24 2 31 8 33 31 2 15 7 25 11 23 4 -3
8 1 8 9 0 8 -4 15 -9 15 -4 0 -8 7 -8 15 0 8 5 15 10 15 6 0 10 5 10 10 0 18
-22 10 -27 -10z"/>
<path d="M5450 3340 c0 -11 2 -20 4 -20 2 0 6 9 9 20 3 11 1 20 -4 20 -5 0 -9
-9 -9 -20z"/>
<path d="M950 3330 c0 -5 5 -10 10 -10 6 0 10 5 10 10 0 6 -4 10 -10 10 -5 0
-10 -4 -10 -10z"/>
<path d="M757 3138 c6 -7 12 -20 15 -28 3 -9 7 -4 10 13 4 22 2 27 -15 27 -14
0 -17 -3 -10 -12z"/>
<path d="M803 3121 c4 -29 12 -34 26 -17 10 12 8 17 -8 26 -18 9 -21 8 -18 -9z"/>
<path d="M855 3099 c-4 -6 -4 -13 0 -17 4 -4 10 -1 12 6 7 19 23 14 32 -10 l9
-23 10 25 10 25 11 -28 c12 -30 31 -28 31 2 0 13 -10 21 -31 25 -46 9 -77 7
-84 -5z"/>
<path d="M990 3081 c0 -17 12 -41 20 -41 15 0 18 39 3 44 -20 8 -23 8 -23 -3z"/>
<path d="M1050 3055 c0 -28 15 -34 24 -9 10 25 7 34 -9 34 -9 0 -15 -9 -15
-25z"/>
<path d="M1104 3065 c-4 -8 -3 -22 0 -31 5 -13 9 -14 21 -4 8 7 15 18 15 25 0
19 -30 27 -36 10z"/>
<path d="M820 2846 c0 -11 9 -16 30 -16 17 0 33 0 37 -1 4 0 9 5 11 11 3 7 -5
9 -22 4 -16 -4 -32 -1 -41 6 -12 10 -15 9 -15 -4z"/>
<path d="M4507 854 c-4 -4 -7 -18 -7 -31 0 -20 5 -23 36 -23 33 0 35 2 32 28
-2 20 -9 28 -28 30 -14 2 -29 0 -33 -4z"/>
<path d="M2197 843 c-4 -3 -7 -30 -7 -59 l0 -53 -36 15 c-47 20 -87 10 -119
-28 -21 -25 -25 -39 -25 -100 0 -64 2 -72 29 -99 24 -23 38 -29 74 -29 28 0
49 6 58 16 11 14 13 14 21 0 5 -9 20 -16 33 -16 l25 0 0 180 0 180 -23 0 c-13
0 -27 -3 -30 -7z m-19 -161 c18 -23 15 -102 -5 -124 -20 -22 -61 -23 -85 -1
-21 19 -25 100 -5 125 24 31 70 31 95 0z"/>
<path d="M2330 671 l0 -181 25 0 c13 0 28 7 33 16 8 14 10 14 21 0 9 -10 30
-16 58 -16 36 0 50 6 74 29 27 27 29 35 29 99 0 61 -4 75 -25 100 -32 38 -72
48 -118 28 l-36 -15 -3 57 c-3 54 -5 57 -30 60 l-28 3 0 -180z m168 11 c18
-23 15 -102 -5 -124 -20 -22 -61 -23 -85 -1 -21 19 -25 100 -5 125 24 31 70
31 95 0z"/>
<path d="M2930 670 l0 -181 28 3 27 3 0 175 0 175 -27 3 -28 3 0 -181z"/>
<path d="M3060 670 l0 -180 30 0 30 0 0 180 0 180 -30 0 -30 0 0 -180z"/>
<path d="M3385 843 c-78 -22 -108 -115 -51 -162 9 -7 51 -25 93 -40 63 -21 79
-30 81 -48 8 -52 -101 -70 -140 -23 -10 12 -28 20 -47 20 -36 0 -36 -1 -16
-40 21 -41 63 -60 132 -60 95 0 153 51 138 121 -9 39 -34 57 -115 82 -79 24
-102 45 -84 75 17 27 87 28 112 2 14 -15 29 -20 51 -18 29 3 30 4 18 27 -26
51 -108 82 -172 64z"/>
<path d="M4930 670 l0 -181 28 3 27 3 0 175 0 175 -27 3 -28 3 0 -181z"/>
<path d="M1050 664 l0 -175 33 3 32 3 3 73 3 72 74 0 75 0 0 -76 0 -75 33 3
32 3 0 170 0 170 -32 3 -33 3 0 -70 0 -71 -75 0 -75 0 0 70 0 70 -35 0 -35 0
0 -176z"/>
<path d="M1473 749 c-29 -8 -63 -42 -63 -61 0 -14 51 -8 66 7 23 22 71 19 84
-5 14 -27 5 -40 -28 -40 -113 0 -178 -85 -110 -142 26 -22 96 -24 126 -2 20
14 22 14 22 0 0 -11 10 -16 30 -16 l30 0 0 94 c0 102 -9 139 -37 155 -30 15
-86 20 -120 10z m97 -153 c0 -24 -41 -66 -65 -66 -26 0 -58 26 -52 44 10 30
117 51 117 22z"/>
<path d="M1798 742 c-30 -16 -38 -17 -38 -6 0 9 -11 14 -30 14 l-30 0 0 -130
0 -130 30 0 30 0 0 78 c0 42 6 88 13 101 16 31 48 42 78 27 22 -11 24 -19 29
-106 l5 -95 30 0 30 0 3 75 c4 83 -9 138 -36 163 -30 27 -73 30 -114 9z"/>
<path d="M2703 752 c-31 -10 -63 -39 -63 -57 0 -20 44 -20 60 1 9 10 26 14 49
12 31 -3 36 -7 39 -30 3 -25 0 -28 -25 -28 -44 0 -102 -19 -124 -41 -28 -28
-25 -73 7 -98 33 -26 105 -29 125 -5 11 14 13 14 21 0 5 -9 20 -16 33 -16 25
0 25 0 25 108 0 100 -2 110 -23 130 -24 23 -88 35 -124 24z m77 -191 c-21 -41
-100 -34 -100 8 0 19 34 38 80 43 29 3 38 -19 20 -51z"/>
<path d="M3731 745 c-25 -11 -36 -12 -41 -4 -4 6 -18 9 -31 7 l-24 -3 -3 -173
-2 -172 35 0 35 0 0 62 c0 59 1 60 18 45 28 -26 95 -22 129 7 25 21 28 32 31
99 4 70 3 76 -24 106 -35 37 -77 46 -123 26z m64 -60 c47 -46 25 -145 -32
-145 -42 0 -63 26 -63 80 0 47 13 73 40 83 26 9 30 8 55 -18z"/>
<path d="M4013 749 c-63 -19 -95 -97 -73 -177 14 -55 53 -82 117 -82 56 0 112
31 113 63 0 13 -61 7 -76 -8 -32 -31 -94 -6 -94 38 0 15 12 17 85 17 99 0 107
8 84 73 -23 66 -86 97 -156 76z m87 -58 c22 -42 14 -51 -45 -51 -43 0 -55 3
-55 16 0 34 20 54 55 54 24 0 38 -6 45 -19z"/>
<path d="M4703 752 c-31 -10 -63 -39 -63 -57 0 -20 44 -20 60 1 9 10 26 14 49
12 31 -3 36 -7 39 -30 3 -25 0 -28 -25 -28 -44 0 -102 -19 -124 -41 -28 -28
-25 -73 7 -98 33 -26 105 -29 125 -5 11 14 13 14 21 0 5 -9 20 -16 33 -16 25
0 25 0 25 108 0 100 -2 110 -23 130 -24 23 -88 35 -124 24z m77 -191 c-21 -41
-100 -34 -100 8 0 19 34 38 80 43 29 3 38 -19 20 -51z"/>
<path d="M4230 725 c0 -24 3 -25 60 -25 33 0 60 -3 60 -6 0 -3 -29 -40 -65
-82 -43 -50 -65 -84 -63 -97 3 -19 11 -20 116 -23 l112 -3 0 26 c0 24 -2 25
-70 25 -38 0 -70 3 -70 6 0 3 29 40 65 82 37 45 65 86 65 100 0 21 -3 22 -105
22 l-105 0 0 -25z"/>
<path d="M4505 738 c-3 -8 -4 -66 -3 -129 l3 -114 30 0 30 0 0 125 0 125 -28
3 c-16 2 -29 -2 -32 -10z"/>
</g>
</svg>
