<?xml version="1.0" standalone="no"?>
<!DOCTYPE svg PUBLIC "-//W3C//DTD SVG 20010904//EN"
 "http://www.w3.org/TR/2001/REC-SVG-20010904/DTD/svg10.dtd">
<svg version="1.0" xmlns="http://www.w3.org/2000/svg"
 width="513.000000pt" height="655.000000pt" viewBox="0 0 513.000000 655.000000"
 preserveAspectRatio="xMidYMid meet">

<g transform="translate(0.000000,655.000000) scale(0.100000,-0.100000)"
fill="#000000" stroke="none">
<path d="M4343 3498 c-10 -12 -22 -51 -30 -93 -17 -91 -106 -255 -139 -255 -7
0 -14 -4 -16 -8 -3 -9 -180 -100 -218 -113 -14 -4 -57 -21 -96 -37 -118 -50
-317 -68 -466 -43 -147 25 -349 109 -482 202 -26 19 -55 39 -63 44 -10 7 -18
5 -29 -9 -8 -11 -14 -15 -14 -10 0 6 5 15 11 21 8 8 8 13 0 17 -6 4 -11 4 -11
1 0 -4 -15 4 -32 17 -18 13 -36 24 -40 24 -5 1 -14 2 -20 3 -9 1 -9 4 2 12 12
9 11 10 -7 6 -13 -3 -23 -2 -23 3 0 19 -46 16 -98 -6 -142 -61 -133 -54 -126
-104 4 -25 8 -46 9 -48 1 -1 14 4 28 11 15 8 24 17 20 20 -3 4 -1 7 5 7 21 0
13 -27 -9 -33 -12 -3 -19 -10 -16 -14 3 -5 1 -15 -5 -23 -8 -12 -9 -12 -4 3 7
21 -17 23 -34 2 -7 -8 -21 -15 -31 -15 -11 0 -19 -5 -19 -11 0 -5 -5 -7 -10
-4 -6 4 -8 11 -5 16 4 5 1 9 -6 9 -6 0 -9 -8 -6 -20 3 -13 1 -18 -6 -13 -6 4
-8 0 -5 -9 4 -8 1 -15 -5 -15 -7 0 -30 -3 -52 -7 -27 -5 -35 -4 -25 2 8 6 24
12 35 14 26 4 48 25 40 38 -10 16 -25 12 -25 -6 0 -11 -6 -15 -19 -11 -12 3
-22 -1 -26 -11 -3 -8 -8 -13 -10 -10 -12 12 9 39 26 35 10 -3 20 1 23 8 5 15
-4 14 -56 -4 -21 -7 -38 -18 -38 -24 0 -8 4 -7 12 1 16 16 31 15 21 0 -4 -7
-8 -24 -8 -38 0 -15 -8 -29 -22 -36 -13 -6 -20 -14 -16 -18 4 -4 -1 -4 -11 0
-14 5 -17 4 -12 -4 9 -15 1 -15 -26 -1 -13 7 -18 7 -14 1 3 -6 -3 -13 -14 -17
-11 -3 -20 -14 -20 -23 1 -15 3 -14 15 2 8 11 15 14 15 8 0 -15 -56 -51 -92
-59 -15 -3 -29 -12 -32 -20 -3 -8 -10 -12 -15 -9 -5 3 -14 -1 -21 -9 -7 -8
-21 -15 -31 -15 -11 0 -19 -6 -19 -14 0 -8 -5 -18 -12 -22 -8 -5 -9 -2 -4 11
6 18 6 18 -12 2 -23 -21 -33 -22 -26 -3 3 8 23 21 44 30 21 8 41 20 45 26 9
14 -8 13 -23 -2 -6 -6 -15 -9 -18 -5 -7 7 11 26 41 43 10 5 19 19 21 30 2 17
1 16 -17 -5 -10 -13 -19 -19 -19 -15 0 5 -9 -2 -19 -15 -15 -20 -21 -22 -40
-11 -29 15 -37 7 -16 -14 15 -14 15 -18 1 -31 -18 -18 -30 -20 -20 -2 4 6 -3
3 -15 -8 l-23 -20 24 -5 23 -6 -25 -7 c-14 -3 -26 -2 -28 3 -2 6 -17 10 -33
10 -17 0 -28 -4 -25 -9 3 -5 15 -7 26 -4 11 3 20 0 20 -6 0 -6 -5 -11 -11 -11
-5 0 -7 -6 -3 -12 5 -10 4 -10 -6 -1 -13 12 -50 2 -81 -24 -8 -7 -23 -13 -32
-13 -9 0 -17 -5 -17 -10 0 -6 -6 -10 -12 -9 -19 3 -78 -21 -78 -32 0 -4 -7 -6
-15 -3 -8 4 -22 1 -30 -6 -8 -6 -20 -10 -26 -8 -7 2 2 11 20 20 22 10 28 17
18 21 -13 5 -67 -36 -67 -51 0 -4 -17 -8 -38 -9 -20 -1 -55 -6 -77 -12 -29 -7
-41 -7 -47 2 -5 8 -9 6 -14 -6 -4 -11 -13 -16 -22 -12 -8 3 -21 0 -28 -6 -9
-8 -14 -8 -14 -1 0 7 -10 8 -32 1 -18 -5 -134 -32 -258 -60 -257 -57 -298 -70
-334 -108 -25 -26 -32 -78 -10 -75 5 1 21 -7 36 -17 14 -11 47 -22 72 -25 25
-4 46 -10 46 -13 0 -11 -58 -12 -65 -2 -3 5 -14 8 -25 6 -12 -2 -18 0 -15 6 4
5 2 9 -4 9 -5 0 -17 3 -27 7 -14 5 -16 3 -11 -12 6 -13 4 -15 -5 -8 -7 6 -20
10 -28 10 -8 0 -25 3 -37 7 -18 6 -23 3 -23 -9 0 -13 6 -16 26 -11 19 5 25 3
22 -6 -3 -8 -18 -12 -36 -10 -21 1 -31 -2 -30 -10 2 -7 -3 -12 -11 -13 -8 0
-16 -5 -18 -11 -5 -14 24 -26 32 -14 4 6 11 10 17 10 7 0 6 -6 -2 -15 -10 -13
-9 -15 9 -15 11 0 21 -4 21 -10 0 -5 3 -9 8 -8 9 4 104 -33 99 -38 -2 -2 -18
0 -35 5 -30 9 -46 -2 -19 -12 6 -3 -7 -6 -30 -6 -29 -1 -41 3 -39 12 1 6 1 9
-1 4 -3 -4 -9 -5 -14 -1 -5 3 -9 1 -9 -5 0 -5 -7 -17 -16 -25 -8 -9 -10 -16
-4 -16 6 0 13 6 16 14 7 19 34 9 34 -13 0 -9 6 -23 12 -29 10 -10 7 -12 -12
-10 -17 2 -25 -3 -28 -17 -4 -16 -2 -17 11 -7 12 10 19 9 38 -8 13 -10 18 -19
12 -20 -7 0 -13 4 -13 10 0 5 -7 7 -15 4 -8 -4 -15 -10 -15 -16 0 -5 5 -6 11
-3 5 4 18 0 27 -8 9 -8 35 -25 57 -37 l40 -21 -47 3 c-47 3 -59 -4 -51 -29 7
-19 23 -16 23 5 1 12 5 9 16 -11 10 -18 21 -26 30 -23 8 3 14 1 14 -4 0 -6 9
-10 19 -10 11 0 23 -5 26 -11 4 -6 13 -8 21 -5 7 3 16 1 20 -5 3 -6 12 -8 20
-5 7 3 16 1 19 -4 7 -11 44 -10 71 2 16 7 29 5 55 -11 40 -25 62 -26 78 -7 11
13 19 10 59 -15 27 -17 53 -27 64 -23 10 3 18 1 18 -5 0 -5 10 -12 23 -14 16
-4 14 -5 -8 -5 -59 2 -109 -33 -70 -48 9 -4 14 -14 13 -23 -2 -12 8 -18 42
-23 25 -4 70 -11 100 -17 306 -55 822 -56 1735 -2 88 6 311 13 495 16 686 12
953 28 1094 66 49 13 67 26 60 44 -3 7 8 21 25 31 35 21 48 44 25 44 -13 0
-15 9 -12 38 l3 38 -40 -27 c-105 -69 -250 -96 -596 -109 -507 -19 -1194 -34
-1629 -34 -549 -1 -615 6 -1140 119 -63 14 -175 30 -248 37 -72 7 -132 16
-132 21 0 4 4 5 10 2 5 -3 10 -2 10 4 0 40 152 29 470 -34 261 -51 362 -66
495 -72 179 -8 444 12 630 47 587 112 763 136 1115 150 118 5 341 16 495 24
530 30 595 40 595 90 0 25 -8 31 -37 27 -16 -2 -17 23 -2 51 8 15 8 19 0 14
-6 -4 -11 0 -11 9 0 9 5 13 10 10 6 -3 14 4 19 17 10 25 5 42 -10 33 -5 -4 -9
-2 -9 4 0 5 5 13 10 16 6 3 10 1 10 -4 0 -6 5 -11 10 -11 14 0 13 36 -4 98 -7
29 -9 52 -4 52 9 0 3 124 -7 140 -3 6 -1 10 4 10 20 0 11 37 -11 48 -13 6 -17
11 -10 11 14 1 17 31 2 31 -5 0 -9 10 -9 23 0 12 -3 38 -7 57 -8 37 -8 49 0
93 2 15 1 27 -4 27 -20 0 -35 110 -17 123 8 6 6 7 -5 3 -15 -4 -18 1 -18 33 0
45 -14 54 -61 41 -18 -5 -35 -7 -38 -5 -2 3 1 5 7 5 17 0 15 20 -3 40 -9 10
-18 41 -21 71 -3 30 -15 78 -25 107 -10 29 -19 74 -20 100 0 26 -3 55 -6 65
-5 20 -36 23 -50 5z m-1728 -238 c-10 -11 -21 -18 -23 -15 -3 3 3 12 14 20 27
20 30 18 9 -5z m52 -6 c-3 -3 -12 -4 -19 -1 -8 3 -5 6 6 6 11 1 17 -2 13 -5z
m-90 -25 c1 -10 -2 -21 -8 -24 -5 -3 -6 0 -3 8 3 8 -2 14 -11 14 -9 0 -14 -6
-11 -13 6 -16 -10 -28 -19 -14 -3 5 -12 10 -18 10 -7 0 -6 -4 3 -10 13 -8 12
-10 -2 -10 -29 0 -21 26 12 42 40 19 56 18 57 -3z m-91 -44 c4 -14 4 -29 0
-32 -3 -4 -6 1 -6 10 0 10 -4 17 -10 17 -5 0 -10 7 -10 15 0 25 19 17 26 -10z
m204 11 c0 -2 -8 -10 -17 -17 -16 -13 -17 -12 -4 4 13 16 21 21 21 13z m90 0
c0 -3 -4 -8 -10 -11 -5 -3 -10 -1 -10 4 0 6 5 11 10 11 6 0 10 -2 10 -4z
m-175 -16 c-3 -5 -12 -10 -18 -10 -7 0 -6 4 3 10 19 12 23 12 15 0z m30 -10
c-3 -5 -11 -10 -16 -10 -6 0 -7 5 -4 10 3 6 11 10 16 10 6 0 7 -4 4 -10z
m1599 -32 c-11 -19 -74 -72 -95 -80 -13 -5 -17 -3 -12 8 3 7 10 14 17 14 6 1
29 16 51 35 44 38 50 41 39 23z m-1514 -2 c0 -2 -7 -7 -16 -10 -8 -3 -12 -2
-9 4 6 10 25 14 25 6z m1830 -51 c0 -9 -6 -12 -15 -9 -8 4 -12 10 -9 15 8 14
24 10 24 -6z m-2034 -31 c-11 -7 -22 -12 -25 -9 -2 3 4 12 15 19 10 8 21 12
24 9 3 -2 -4 -11 -14 -19z m-89 10 c-3 -3 -12 -4 -19 -1 -8 3 -5 6 6 6 11 1
17 -2 13 -5z m2098 -4 c-3 -5 -12 -10 -18 -10 -7 0 -6 4 3 10 19 12 23 12 15
0z m-1955 -20 c0 -5 6 -10 13 -10 6 -1 23 -14 37 -30 13 -17 28 -30 33 -30 6
0 20 -11 33 -25 13 -14 28 -25 34 -25 5 0 10 -7 10 -15 0 -8 7 -15 15 -15 9 0
18 -7 21 -15 4 -8 12 -15 20 -15 8 0 14 -7 14 -15 0 -8 7 -15 15 -15 8 0 15
-7 15 -15 0 -8 7 -15 15 -15 9 0 18 -7 21 -15 4 -8 12 -15 20 -15 8 0 14 -7
14 -16 0 -9 9 -18 20 -21 11 -3 20 -12 20 -19 0 -8 6 -14 14 -14 8 0 16 -7 20
-15 3 -8 12 -15 21 -15 8 0 15 -7 15 -15 0 -8 6 -15 14 -15 8 0 16 -7 20 -15
3 -8 12 -15 21 -15 8 0 15 -7 15 -15 0 -8 6 -15 14 -15 8 0 16 -7 20 -15 3 -8
12 -15 21 -15 8 0 15 -7 15 -15 0 -8 4 -15 10 -15 12 0 60 -48 60 -60 0 -6 6
-10 14 -10 8 0 16 -7 20 -15 3 -8 12 -15 21 -15 8 0 15 -7 15 -15 0 -8 6 -15
14 -15 8 0 18 -9 21 -20 4 -11 10 -18 15 -15 4 3 11 -2 14 -10 3 -9 0 -17 -7
-19 -6 -2 -52 -13 -100 -25 -106 -25 -153 -27 -161 -5 -3 8 -10 13 -15 9 -6
-3 -15 4 -21 15 -6 11 -17 20 -25 20 -8 0 -15 7 -15 15 0 8 -7 15 -15 15 -8 0
-15 7 -15 15 0 8 -9 15 -20 15 -11 0 -20 7 -20 15 0 8 -7 15 -15 15 -8 0 -15
7 -15 15 0 8 -9 15 -21 15 -12 0 -17 4 -14 11 4 6 -2 13 -14 16 -12 3 -21 12
-21 20 0 8 -9 17 -20 20 -11 3 -20 12 -20 19 0 8 -7 14 -15 14 -8 0 -15 7 -15
15 0 8 -9 15 -20 15 -11 0 -20 7 -20 15 0 8 -7 15 -15 15 -8 0 -15 7 -15 15 0
8 -7 15 -15 15 -9 0 -18 7 -21 15 -4 8 -12 15 -20 15 -8 0 -14 7 -14 15 0 8
-7 15 -15 15 -8 0 -15 7 -15 15 0 8 -9 15 -20 15 -11 0 -20 7 -20 15 0 8 -7
15 -15 15 -8 0 -15 7 -15 15 0 8 -6 15 -14 15 -8 0 -16 7 -20 15 -3 8 -12 15
-21 15 -8 0 -15 7 -15 15 0 8 -4 14 -9 13 -5 -2 -20 9 -34 25 -14 15 -29 27
-32 27 -9 0 -35 27 -35 37 0 4 15 14 33 21 17 7 40 18 49 23 10 5 25 9 33 9 8
0 15 5 15 10 0 6 8 10 19 10 10 0 24 7 31 15 14 17 40 20 40 5z m-160 -25 c-7
-9 -15 -13 -17 -11 -7 7 7 26 19 26 6 0 6 -6 -2 -15z m1868 0 c-9 -8 -108 -55
-108 -51 0 3 18 15 40 27 21 12 37 26 35 30 -3 4 4 5 15 2 12 -3 19 -7 18 -8z
m-1933 -25 c-27 -12 -43 -12 -25 0 8 5 22 9 30 9 10 0 8 -3 -5 -9z m1697 -20
c27 0 30 -2 24 -25 -4 -14 -2 -25 4 -25 5 0 10 7 10 15 0 8 4 15 8 15 18 0 8
-29 -13 -38 -15 -7 -38 -6 -75 4 -69 18 -99 16 -40 -2 l45 -14 -38 5 c-53 6
-131 36 -116 45 6 4 31 8 55 8 25 1 52 6 62 11 9 6 23 8 30 6 8 -3 27 -5 44
-5z m106 -13 c22 8 13 -1 -15 -15 -19 -11 -20 -9 -15 10 3 13 7 17 9 11 3 -7
12 -9 21 -6z m-1883 -7 c3 -5 -1 -10 -10 -10 -9 0 -13 5 -10 10 3 6 8 10 10
10 2 0 7 -4 10 -10z m-63 -13 c-21 -6 -31 -15 -28 -24 3 -7 -1 -13 -9 -13 -8
0 -15 9 -15 21 0 11 4 18 8 15 4 -2 14 -1 22 5 8 5 24 8 35 8 13 -1 9 -5 -13
-12z m24 -72 c10 -14 24 -25 31 -25 7 0 13 -7 13 -15 0 -8 5 -15 11 -15 7 0
22 -11 35 -25 13 -14 28 -25 34 -25 5 0 10 -7 10 -15 0 -8 7 -15 15 -15 8 0
15 -7 15 -15 0 -8 7 -15 15 -15 8 0 15 -7 15 -15 0 -8 5 -15 11 -15 7 0 25
-13 41 -30 15 -16 33 -30 38 -30 6 0 10 -7 10 -15 0 -8 7 -15 15 -15 9 0 18
-7 21 -15 4 -8 12 -15 20 -15 8 0 14 -7 14 -15 0 -8 7 -15 15 -15 8 0 15 -7
15 -15 0 -8 9 -15 20 -15 13 0 20 -7 20 -20 0 -11 6 -20 14 -20 8 0 16 -7 20
-15 3 -8 12 -15 21 -15 8 0 15 -7 15 -15 0 -8 9 -15 20 -15 11 0 20 -7 20 -15
0 -8 7 -15 15 -15 8 0 15 -6 15 -14 0 -7 9 -16 20 -19 11 -3 20 -12 20 -21 0
-9 6 -16 14 -16 7 0 16 -8 18 -18 4 -13 -1 -18 -19 -20 -13 -1 -69 -13 -125
-27 -75 -20 -103 -23 -108 -14 -4 6 -12 9 -18 5 -5 -3 -12 4 -15 15 -3 12 -10
18 -17 14 -7 -4 -14 2 -17 14 -3 12 -12 21 -19 21 -8 0 -14 7 -14 15 0 8 -9
15 -20 15 -11 0 -20 7 -20 15 0 8 -9 15 -20 15 -11 0 -20 7 -20 15 0 8 -7 15
-15 15 -8 0 -15 6 -15 14 0 7 -9 16 -20 19 -11 3 -20 13 -20 22 0 11 -5 15
-15 11 -10 -4 -15 1 -15 14 0 11 -7 20 -15 20 -9 0 -18 7 -21 15 -4 8 -12 15
-20 15 -8 0 -14 7 -14 15 0 8 -7 15 -15 15 -8 0 -15 7 -15 15 0 8 -7 15 -15
15 -9 0 -18 7 -21 15 -4 8 -12 15 -20 15 -8 0 -14 7 -14 15 0 8 -7 15 -15 15
-8 0 -15 7 -15 15 0 8 -7 15 -15 15 -8 0 -15 7 -15 15 0 8 -5 15 -11 15 -7 0
-26 16 -45 35 -18 19 -36 35 -40 35 -4 0 -15 10 -25 21 -19 22 -19 22 34 46
28 13 75 35 102 48 63 31 78 31 101 0z m-385 -152 c16 -10 29 -21 29 -26 0 -5
15 -6 33 -3 30 6 31 6 7 -5 -22 -10 -22 -13 -7 -16 11 -3 16 -11 13 -19 -3 -8
1 -14 9 -14 8 0 15 -4 15 -10 0 -5 7 -10 15 -10 8 0 15 -7 15 -15 0 -8 7 -15
15 -15 8 0 15 -7 15 -15 0 -8 7 -15 15 -15 8 0 15 -7 15 -15 0 -8 7 -15 15
-15 8 0 15 -7 15 -15 0 -8 7 -15 15 -15 8 0 15 -7 15 -15 0 -8 7 -15 15 -15 8
0 15 -7 15 -15 0 -8 9 -15 20 -15 11 0 20 -7 20 -15 0 -8 7 -15 15 -15 8 0 15
-7 15 -15 0 -8 6 -15 14 -15 7 0 16 -9 19 -21 3 -12 10 -18 17 -14 7 4 14 -2
17 -14 3 -12 12 -21 19 -21 8 0 14 -7 14 -15 0 -8 9 -15 20 -15 11 0 20 -7 20
-15 0 -8 7 -15 15 -15 8 0 15 -7 15 -16 0 -9 9 -18 19 -21 11 -3 21 -13 24
-22 4 -15 -15 -23 -116 -51 -87 -25 -122 -31 -125 -22 -2 7 -10 12 -18 12 -8
0 -17 7 -20 15 -4 8 -12 15 -20 15 -8 0 -14 7 -14 15 0 8 -7 15 -15 15 -8 0
-15 7 -15 15 0 8 -9 15 -20 15 -13 0 -20 7 -20 20 0 11 -7 20 -15 20 -8 0 -15
7 -15 15 0 8 -7 15 -15 15 -8 0 -15 7 -15 15 0 8 -9 15 -20 15 -11 0 -20 7
-20 15 0 8 -7 15 -15 15 -8 0 -15 7 -15 15 0 8 -7 15 -15 15 -8 0 -15 7 -15
15 0 8 -7 15 -15 15 -8 0 -15 7 -15 15 0 8 -7 15 -15 15 -8 0 -15 7 -15 15 0
8 -6 15 -13 15 -14 0 -47 35 -47 50 0 6 -4 10 -10 10 -5 0 -32 21 -59 48 -28
26 -57 53 -66 61 -15 12 -6 17 72 48 48 19 97 38 108 43 11 5 22 9 23 9 2 1
17 -7 33 -16z m189 -9 c0 -2 -10 -3 -22 -3 -13 0 -34 -2 -48 -6 -20 -5 -19 -3
5 8 26 12 65 12 65 1z m-462 -120 c-9 -9 -22 -14 -30 -11 -8 3 -4 8 12 15 35
15 37 14 18 -4z m-78 -14 c-14 -10 -26 -17 -29 -15 -2 3 -11 1 -20 -4 -9 -5
-25 -5 -36 0 -18 7 -17 8 6 8 14 1 29 5 35 10 8 8 36 17 59 20 6 0 -1 -8 -15
-19z m-242 -20 c75 0 53 -17 -30 -23 -10 -1 -18 -5 -18 -9 0 -4 -3 -7 -7 -7
-5 1 -11 0 -15 -1 -5 -1 -11 -3 -15 -4 -32 -8 -52 -19 -48 -27 4 -5 -19 -9
-53 -9 -41 0 -63 -5 -72 -15 -10 -12 -26 -14 -76 -9 -45 5 -64 3 -64 -5 0 -6
-16 -11 -38 -11 -22 0 -65 -9 -97 -20 -32 -11 -59 -19 -61 -18 -6 7 24 35 51
47 58 26 430 120 459 115 16 -2 53 -4 84 -4z m132 6 c0 -2 -13 -9 -30 -15 -16
-5 -30 -6 -30 -1 0 5 8 11 18 13 24 7 42 8 42 3z m3194 -62 c3 -8 2 -12 -4 -9
-6 3 -10 10 -10 16 0 14 7 11 14 -7z m50 -110 c3 -8 2 -12 -4 -9 -6 3 -10 10
-10 16 0 14 7 11 14 -7z m-3830 -92 c2 -4 -7 -9 -20 -10 -15 -1 -22 2 -19 8 7
12 32 13 39 2z m129 -22 c5 -4 4 -11 -2 -14 -6 -4 -11 -3 -11 2 0 5 -23 8 -50
8 -28 -1 -50 4 -50 9 0 12 101 7 113 -5z m-323 6 c0 -9 -30 -14 -35 -6 -4 6 3
10 14 10 12 0 21 -2 21 -4z m30 -16 c0 -5 -2 -10 -4 -10 -3 0 -8 5 -11 10 -3
6 -1 10 4 10 6 0 11 -4 11 -10z m403 1 c15 -1 27 -5 27 -10 0 -4 -10 -7 -22
-5 -76 11 -91 14 -96 19 -3 3 10 3 29 1 19 -3 46 -5 62 -5z m57 -11 c0 -5 -2
-10 -4 -10 -3 0 -8 5 -11 10 -3 6 -1 10 4 10 6 0 11 -4 11 -10z m80 -11 c0 -4
-17 -7 -37 -7 -25 0 -31 3 -20 7 24 9 57 9 57 0z m95 -10 c11 -16 1 -19 -13
-3 -7 8 -8 14 -3 14 5 0 13 -5 16 -11z m45 -4 c0 -9 -6 -12 -16 -8 -13 5 -13
7 -2 14 17 11 18 11 18 -6z m65 -5 c8 -13 -15 -13 -35 0 -12 8 -11 10 7 10 12
0 25 -4 28 -10z m220 -21 c12 -12 1 -11 -115 6 l-95 14 100 -6 c55 -3 104 -9
110 -14z m55 -9 c0 -5 -7 -7 -15 -4 -8 4 -15 8 -15 10 0 2 7 4 15 4 8 0 15 -4
15 -10z m119 -6 c9 -8 -75 -2 -94 6 -12 5 1 6 35 3 30 -3 57 -7 59 -9z m74
-11 c-7 -2 -19 -2 -25 0 -7 3 -2 5 12 5 14 0 19 -2 13 -5z m-1273 -53 c0 -5
-4 -10 -9 -10 -6 0 -13 5 -16 10 -3 6 1 10 9 10 9 0 16 -4 16 -10z"/>
<path d="M3880 2940 c8 -5 20 -10 25 -10 6 0 3 5 -5 10 -8 5 -19 10 -25 10 -5
0 -3 -5 5 -10z"/>
<path d="M4265 3452 c-14 -2 -24 -16 -33 -45 -26 -83 -53 -126 -103 -163 -83
-61 -198 -110 -324 -139 -169 -39 -507 -37 -655 3 -61 16 -66 20 -87 62 -12
25 -22 57 -22 72 -1 15 -6 30 -11 33 -6 4 -8 10 -5 14 2 5 -7 19 -20 31 -14
13 -25 18 -25 12 0 -7 -7 -12 -15 -12 -20 0 -19 17 3 30 14 9 11 10 -15 7 -35
-4 -40 1 -20 22 10 11 8 12 -12 6 -13 -4 -26 -3 -30 2 -8 12 -81 33 -81 24 0
-5 -11 -20 -25 -35 -29 -31 -22 -33 21 -7 29 17 34 18 53 5 24 -17 28 -34 7
-34 -8 0 -18 -5 -22 -12 -5 -8 3 -9 30 -5 22 3 34 2 31 -4 -4 -5 -17 -9 -30
-9 -15 0 -26 -7 -30 -21 -5 -13 -10 -17 -18 -11 -8 6 -18 3 -30 -8 -18 -18
-18 -19 10 -36 15 -10 43 -31 61 -46 18 -15 37 -28 43 -28 5 0 19 -8 30 -19
32 -30 238 -128 314 -150 158 -44 297 -52 440 -22 150 31 415 150 488 219 37
35 94 151 102 207 9 53 6 61 -20 57z m-1273 -164 c-6 -6 -15 -8 -19 -4 -4 4
-1 11 7 16 19 12 27 3 12 -12z m-42 -27 c0 -14 -59 -41 -65 -30 -3 4 6 11 20
15 14 3 25 10 25 15 0 5 5 9 10 9 6 0 10 -4 10 -9z m-105 -11 c3 -5 -1 -10 -9
-10 -9 0 -16 5 -16 10 0 6 4 10 9 10 6 0 13 -4 16 -10z m175 6 c0 -2 -7 -9
-15 -16 -12 -10 -15 -10 -15 4 0 9 7 16 15 16 8 0 15 -2 15 -4z m-70 -50 c0
-2 -7 -6 -15 -10 -8 -3 -15 -1 -15 4 0 6 7 10 15 10 8 0 15 -2 15 -4z m70 0
c0 -2 -7 -6 -15 -10 -8 -3 -15 -1 -15 4 0 6 7 10 15 10 8 0 15 -2 15 -4z m-20
-50 c0 -3 -4 -8 -10 -11 -5 -3 -10 -1 -10 4 0 6 5 11 10 11 6 0 10 -2 10 -4z"/>
<path d="M2770 3410 c-9 -6 -10 -10 -3 -10 6 0 15 5 18 10 8 12 4 12 -15 0z"/>
<path d="M2725 3359 c-4 -5 -19 -15 -33 -21 -23 -10 -24 -12 -8 -16 11 -2 29
6 45 22 14 14 20 26 14 26 -7 0 -15 -5 -18 -11z"/>
<path d="M2800 3348 c-14 -13 -25 -21 -25 -19 0 2 -13 -3 -30 -12 -28 -15 -29
-16 -6 -17 16 0 21 -4 17 -15 -3 -8 0 -15 5 -15 14 0 89 76 89 90 0 17 -25 11
-50 -12z"/>
<path d="M2260 3160 c-6 -11 -8 -20 -6 -20 3 0 10 9 16 20 6 11 8 20 6 20 -3
0 -10 -9 -16 -20z"/>
<path d="M2280 3134 c-25 -14 -46 -30 -48 -35 -2 -5 -12 -9 -23 -9 -10 0 -19
-4 -19 -10 0 -5 4 -10 9 -10 14 0 71 34 71 43 0 11 34 9 47 -4 5 -5 30 -12 54
-14 l43 -5 -32 23 c-17 12 -32 28 -32 35 0 18 -20 15 -70 -14z m70 -18 c0 -10
-34 2 -38 13 -3 10 0 10 17 2 11 -7 21 -13 21 -15z"/>
<path d="M2200 3030 c0 -20 -5 -30 -15 -30 -8 0 -15 -4 -15 -10 0 -13 3 -13
35 4 17 9 22 16 13 19 -9 4 -10 8 -2 14 9 6 8 11 -2 21 -12 11 -14 8 -14 -18z"/>
<path d="M2086 3031 c-4 -7 -5 -15 -2 -18 9 -9 19 4 14 18 -4 11 -6 11 -12 0z"/>
<path d="M1997 3010 c-37 -23 -43 -30 -20 -24 21 6 58 32 52 38 -2 2 -16 -4
-32 -14z"/>
<path d="M2046 3011 c-6 -10 24 -25 32 -16 3 3 0 5 -7 5 -7 0 -9 5 -6 10 3 6
2 10 -4 10 -5 0 -12 -4 -15 -9z"/>
<path d="M2005 2980 c-3 -5 -1 -10 4 -10 6 0 11 5 11 10 0 6 -2 10 -4 10 -3 0
-8 -4 -11 -10z"/>
<path d="M2100 2986 c0 -2 7 -6 15 -10 8 -3 15 -1 15 4 0 6 -7 10 -15 10 -8 0
-15 -2 -15 -4z"/>
<path d="M2050 2919 c0 -5 5 -7 10 -4 6 3 10 2 10 -3 0 -15 -47 -21 -61 -8 -9
8 -10 8 -6 0 4 -7 0 -14 -8 -18 -20 -7 -19 -26 1 -26 8 0 13 4 10 9 -3 5 12
11 34 15 43 7 60 23 39 37 -19 12 -29 11 -29 -2z"/>
<path d="M1841 2864 c0 -11 3 -14 6 -6 3 7 2 16 -1 19 -3 4 -6 -2 -5 -13z"/>
<path d="M1776 2843 c-6 -14 -5 -15 5 -6 7 7 10 15 7 18 -3 3 -9 -2 -12 -12z"/>
<path d="M4610 2824 c0 -41 10 -41 14 0 2 15 -1 29 -5 32 -5 3 -9 -12 -9 -32z"/>
<path d="M4620 2765 c0 -8 4 -15 10 -15 5 0 7 7 4 15 -4 8 -8 15 -10 15 -2 0
-4 -7 -4 -15z"/>
<path d="M4620 2729 c0 -5 5 -7 10 -4 6 3 10 8 10 11 0 2 -4 4 -10 4 -5 0 -10
-5 -10 -11z"/>
<path d="M1630 2719 c0 -5 5 -7 10 -4 6 3 10 8 10 11 0 2 -4 4 -10 4 -5 0 -10
-5 -10 -11z"/>
<path d="M4640 2705 c0 -5 5 -17 10 -25 5 -8 10 -10 10 -5 0 6 -5 17 -10 25
-5 8 -10 11 -10 5z"/>
<path d="M1275 2640 c-3 -5 -1 -10 4 -10 6 0 11 5 11 10 0 6 -2 10 -4 10 -3 0
-8 -4 -11 -10z"/>
<path d="M535 2330 c3 -5 10 -10 16 -10 5 0 9 5 9 10 0 6 -7 10 -16 10 -8 0
-12 -4 -9 -10z"/>
<path d="M486 2105 c-10 -7 -16 -20 -13 -27 4 -10 6 -10 6 0 1 6 8 12 16 12 8
0 15 7 15 15 0 18 0 18 -24 0z"/>
<path d="M465 1967 c10 -8 25 -12 33 -10 16 7 14 9 -23 17 -28 7 -29 6 -10 -7z"/>
<path d="M521 1956 c-7 -8 -9 -21 -5 -27 5 -9 10 -5 16 11 10 28 5 36 -11 16z"/>
</g>
</svg>
